<svg xmlns="http://www.w3.org/2000/svg" viewBox="0 0 198.762 92.585">
  <defs>
    <style>
      .cls-1 {
        fill: none;
      }

      .cls-2 {
        fill: #00995d;
      }

      .cls-3, .cls-4 {
        fill: #fff;
      }

      .cls-3 {
        fill-rule: evenodd;
      }
    </style>
  </defs>
  <g id="Group_1" data-name="Group 1" transform="translate(0 0)">
    <path id="Path_2" data-name="Path 2" class="cls-1" d="M183.476,2.314A13.012,13.012,0,0,1,196.49,15.328V90.313H15.286A13.012,13.012,0,0,1,2.272,77.3V15.286A13.057,13.057,0,0,1,15.286,2.314H183.476m0-2.314H15.286A15.3,15.3,0,0,0,0,15.286V77.3A15.3,15.3,0,0,0,15.286,92.585H198.762v-77.3A15.278,15.278,0,0,0,183.476,0Z"/>
    <g id="Group_1631" data-name="Group 1631" transform="translate(-276.02 -28.647)">
      <path id="Path_1" data-name="Path 1" class="cls-2" d="M16.791,92.189A14.011,14.011,0,0,1,2.8,78.2V16.791A14.038,14.038,0,0,1,16.791,2.8H183.337a14.011,14.011,0,0,1,13.991,13.991v75.4Z" transform="translate(275.199 27.445)"/>
      <g id="Group_2" data-name="Group 2" transform="translate(418.405 53.047)">
        <path id="Path_3" data-name="Path 3" class="cls-3" d="M387.5,61h6.832l10.187,13.582h-6.791l5.073,6.791h-8.468l-5.114-6.791h3.4L387.5,67.791h5.114Z" transform="translate(-370.522 -61)"/>
        <path id="Path_4" data-name="Path 4" class="cls-3" d="M362.978,61h-6.791L346,74.582h6.791l-5.114,6.791h8.509l5.114-6.791h-3.4l5.073-6.791H357.9Z" transform="translate(-346 -61)"/>
      </g>
      <rect id="Rectangle_1" data-name="Rectangle 1" class="cls-4" width="1.186" height="49.092" transform="translate(413.578 49.406)"/>
      <g id="Group_3" data-name="Group 3" transform="translate(298.169 52.965)">
        <path id="Path_5" data-name="Path 5" class="cls-3" d="M59.382,64.3H52.1V75.878c0,5.6,4.173,7.814,9.491,7.814,5.768,0,9.532-2,9.532-8.182V64.3H63.964V75.632c0,1.841-.409,3.15-2.332,3.15-1.759,0-2.25-1.35-2.25-3.15Z" transform="translate(-52.1 -62.868)"/>
        <path id="Path_6" data-name="Path 6" class="cls-3" d="M103.6,89.823h6.873V81.641c0-.818,0-1.923,1.227-1.923,1.186,0,1.186,1.1,1.186,1.923v8.182h6.873V79.964c0-2.741-1.35-4.664-4.991-4.664a4.671,4.671,0,0,0-4.623,2.782H110.1V75.627h-6.5Z" transform="translate(-82.531 -69.368)"/>
        <path id="Path_7" data-name="Path 7" class="cls-3" d="M149.5,81.255h6.873v-14.2H149.5v14.2ZM156.373,60.8H149.5v4.746h6.873Z" transform="translate(-109.653 -60.8)"/>
        <path id="Path_8" data-name="Path 8" class="cls-3" d="M171.741,89.823h6.873V81.641c0-.818,0-1.923,1.227-1.923,1.186,0,1.186,1.1,1.186,1.923v8.182H187.9V81.641c0-.818,0-1.923,1.186-1.923,1.227,0,1.227,1.1,1.227,1.923v8.182h6.873V81.314c0-2.782,0-6.014-5.032-6.014-1.677,0-4.091.777-4.541,2.414h-.041c-.532-1.677-2.536-2.414-4.459-2.414-2.168,0-4.05.777-4.868,2.782H178.2V75.627h-6.5v14.2Z" transform="translate(-122.771 -69.368)"/>
        <path id="Path_9" data-name="Path 9" class="cls-3" d="M244.05,81.355c-.082-1.1.286-2.823,1.841-2.823s1.718,1.718,1.718,2.823Zm9.491,3.027v-.859c0-4.787-1.923-8.223-7.446-8.223-5.768,0-8.8,2.414-8.8,7.159,0,4.909,3.068,7.691,8.8,7.691a21.866,21.866,0,0,0,6.423-.818V85.65a10.62,10.62,0,0,1-4.664.9c-2,0-3.682-.409-3.8-2.168Z" transform="translate(-161.534 -69.368)"/>
        <path id="Path_10" data-name="Path 10" class="cls-3" d="M297.464,81.255V60.8h-6.873v8.059h-.041a4.855,4.855,0,0,0-4.3-2.168c-4.3,0-6.055,3.355-6.055,7.2,0,4.132,1.677,7.65,6.218,7.65a4.4,4.4,0,0,0,4.582-2.9h.041v2.577h6.423ZM290.8,74.1c0,1.35-.2,2.9-1.677,2.9-1.514,0-1.759-1.6-1.759-3.068s.245-2.946,1.677-2.946C290.55,70.987,290.8,72.459,290.8,74.1Z" transform="translate(-186.883 -60.8)"/>
      </g>
      <rect id="Rectangle_2" data-name="Rectangle 2" class="cls-4" width="154.232" height="1.186" transform="translate(298.169 77.061)"/>
      <g id="Group_4" data-name="Group 4" transform="translate(346.402 81.848)">
        <path id="Path_11" data-name="Path 11" class="cls-4" d="M176.218,131.4h1.268v5.482a6.979,6.979,0,0,1-.327,2.291,2.536,2.536,0,0,1-1.186,1.35,4.02,4.02,0,0,1-2.209.532,4.621,4.621,0,0,1-2.168-.45,2.487,2.487,0,0,1-1.227-1.35,6.272,6.272,0,0,1-.368-2.373V131.4h1.268v5.482a5.231,5.231,0,0,0,.245,1.841,1.688,1.688,0,0,0,.777.9,2.745,2.745,0,0,0,1.35.327,2.564,2.564,0,0,0,1.964-.614,3.527,3.527,0,0,0,.573-2.414V131.4Z" transform="translate(-170 -131.4)"/>
        <path id="Path_12" data-name="Path 12" class="cls-4" d="M194.064,140.891H193V131.4h1.145v3.4a2.307,2.307,0,0,1,1.882-.941,2.934,2.934,0,0,1,1.186.245,2.365,2.365,0,0,1,.941.736,3.547,3.547,0,0,1,.573,1.1,5.2,5.2,0,0,1,.2,1.391,4,4,0,0,1-.859,2.741,2.674,2.674,0,0,1-2.086.982,2.2,2.2,0,0,1-1.923-1.023Zm0-3.477a3.906,3.906,0,0,0,.327,1.8,1.647,1.647,0,0,0,2.782.245,3.036,3.036,0,0,0,.573-1.964,3.087,3.087,0,0,0-.532-2,1.708,1.708,0,0,0-1.309-.655,1.644,1.644,0,0,0-1.309.655A3.254,3.254,0,0,0,194.064,137.414Z" transform="translate(-183.591 -131.4)"/>
        <path id="Path_13" data-name="Path 13" class="cls-4" d="M215.214,142.227l1.186.164a2.886,2.886,0,0,1-1.064,1.636,3.375,3.375,0,0,1-1.964.573,3.079,3.079,0,0,1-2.373-.941,3.686,3.686,0,0,1-.9-2.618,3.783,3.783,0,0,1,.9-2.7,3.259,3.259,0,0,1,4.582,0,3.78,3.78,0,0,1,.859,2.659v.327h-5.155a2.444,2.444,0,0,0,.655,1.718,1.857,1.857,0,0,0,1.432.614,2.058,2.058,0,0,0,1.1-.327A2.892,2.892,0,0,0,215.214,142.227Zm-3.846-1.882h3.846a2.257,2.257,0,0,0-.45-1.309,1.764,1.764,0,0,0-1.432-.655,1.819,1.819,0,0,0-1.35.532A2.191,2.191,0,0,0,211.368,140.346Z" transform="translate(-193.695 -134.945)"/>
        <path id="Path_14" data-name="Path 14" class="cls-4" d="M229,144.378V137.5h1.064v1.023a3.724,3.724,0,0,1,.736-.982,1.32,1.32,0,0,1,.736-.245,2.234,2.234,0,0,1,1.186.368l-.409,1.064a1.718,1.718,0,0,0-.859-.245,1.111,1.111,0,0,0-.7.245,1.557,1.557,0,0,0-.45.655,4.671,4.671,0,0,0-.2,1.35v3.6H229Z" transform="translate(-204.863 -134.886)"/>
        <path id="Path_15" data-name="Path 15" class="cls-4" d="M239.8,140.891V131.4h1.145v9.491Z" transform="translate(-211.245 -131.4)"/>
        <path id="Path_16" data-name="Path 16" class="cls-4" d="M250.968,140.073a5.43,5.43,0,0,1-1.227.777,3.334,3.334,0,0,1-1.268.245,2.407,2.407,0,0,1-1.759-.573,1.857,1.857,0,0,1-.614-1.432,1.9,1.9,0,0,1,.859-1.6,2.953,2.953,0,0,1,.818-.368c.245-.041.573-.123,1.023-.164a10.911,10.911,0,0,0,2.086-.409v-.286a1.388,1.388,0,0,0-.327-1.023,2,2,0,0,0-1.309-.409,2.1,2.1,0,0,0-1.227.286,1.874,1.874,0,0,0-.573,1.023l-1.146-.164a2.9,2.9,0,0,1,.532-1.186,2.387,2.387,0,0,1,1.023-.7,5.078,5.078,0,0,1,2.986-.041,1.78,1.78,0,0,1,.818.532,2.28,2.28,0,0,1,.368.777,7,7,0,0,1,.041,1.064v1.555a17.867,17.867,0,0,0,.082,2.046,2.777,2.777,0,0,0,.286.818h-1.227A1.739,1.739,0,0,1,250.968,140.073Zm-1.677-7.978-.736,1.1H247.2l1.391-1.8h1.227l1.473,1.8h-1.309Zm1.6,5.359a8.915,8.915,0,0,1-1.923.45,5.314,5.314,0,0,0-1.023.245.823.823,0,0,0-.45.368.939.939,0,0,0-.164.573.95.95,0,0,0,.368.777,1.531,1.531,0,0,0,1.023.327,2.22,2.22,0,0,0,1.186-.286,1.675,1.675,0,0,0,.777-.818,2.73,2.73,0,0,0,.2-1.146Z" transform="translate(-214.967 -131.4)"/>
        <path id="Path_17" data-name="Path 17" class="cls-4" d="M265.1,144.437v-6.873h1.064v.982a2.51,2.51,0,0,1,2.209-1.146,3.549,3.549,0,0,1,1.146.2,1.93,1.93,0,0,1,.777.573,2.728,2.728,0,0,1,.368.859,6.565,6.565,0,0,1,.082,1.145V144.4H269.6v-4.173a3.42,3.42,0,0,0-.123-1.064,1.1,1.1,0,0,0-.491-.573,1.729,1.729,0,0,0-.818-.2,1.76,1.76,0,0,0-1.268.491,2.309,2.309,0,0,0-.532,1.8v3.764Z" transform="translate(-226.194 -134.945)"/>
        <path id="Path_18" data-name="Path 18" class="cls-4" d="M286.968,140.891v-.859a2.112,2.112,0,0,1-1.923,1.023,2.847,2.847,0,0,1-1.514-.45,2.961,2.961,0,0,1-1.064-1.268,4.412,4.412,0,0,1-.368-1.882,5.5,5.5,0,0,1,.327-1.882,2.669,2.669,0,0,1,1.023-1.268,2.881,2.881,0,0,1,1.555-.45,2.435,2.435,0,0,1,1.1.245,2.125,2.125,0,0,1,.777.7v-3.4h1.145v9.491h-1.064Zm-3.682-3.4a2.884,2.884,0,0,0,.573,1.964,1.644,1.644,0,0,0,1.309.655,1.727,1.727,0,0,0,1.309-.614,2.841,2.841,0,0,0,.532-1.923,3.268,3.268,0,0,0-.532-2.086,1.664,1.664,0,0,0-1.35-.655,1.589,1.589,0,0,0-1.309.655A2.942,2.942,0,0,0,283.286,137.5Z" transform="translate(-236.24 -131.4)"/>
        <path id="Path_19" data-name="Path 19" class="cls-4" d="M301.2,132.75V131.4h1.146v1.35Zm0,8.141v-6.873h1.146v6.873Z" transform="translate(-247.526 -131.4)"/>
        <path id="Path_20" data-name="Path 20" class="cls-4" d="M312.268,143.618a5.432,5.432,0,0,1-1.227.777,3.334,3.334,0,0,1-1.268.245,2.407,2.407,0,0,1-1.759-.573,1.857,1.857,0,0,1-.614-1.432,1.9,1.9,0,0,1,.859-1.6,2.953,2.953,0,0,1,.818-.368c.245-.041.573-.123,1.023-.164a10.91,10.91,0,0,0,2.086-.409v-.286a1.388,1.388,0,0,0-.327-1.023,2,2,0,0,0-1.309-.409,2.1,2.1,0,0,0-1.227.286,1.875,1.875,0,0,0-.573,1.023l-1.145-.164a3.571,3.571,0,0,1,.491-1.186,2.387,2.387,0,0,1,1.023-.7,5.078,5.078,0,0,1,2.986-.041,1.781,1.781,0,0,1,.818.532,2.28,2.28,0,0,1,.368.777,7,7,0,0,1,.041,1.064v1.555a17.872,17.872,0,0,0,.082,2.046,2.777,2.777,0,0,0,.286.818h-1.227A2.616,2.616,0,0,1,312.268,143.618ZM312.187,141a8.916,8.916,0,0,1-1.923.45,5.314,5.314,0,0,0-1.023.245.823.823,0,0,0-.45.368.939.939,0,0,0-.164.573.95.95,0,0,0,.368.777,1.531,1.531,0,0,0,1.023.327,2.22,2.22,0,0,0,1.186-.286,1.878,1.878,0,0,0,.777-.818,2.729,2.729,0,0,0,.2-1.145V141Z" transform="translate(-251.189 -134.945)"/>
      </g>
    </g>
  </g>
</svg>
